<?xml version="1.0" encoding="UTF-8" standalone="no"?>
<!-- Created with Inkscape (http://www.inkscape.org/) -->

<svg
   xmlns:dc="http://purl.org/dc/elements/1.1/"
   xmlns:cc="http://creativecommons.org/ns#"
   xmlns:rdf="http://www.w3.org/1999/02/22-rdf-syntax-ns#"
   xmlns:svg="http://www.w3.org/2000/svg"
   xmlns="http://www.w3.org/2000/svg"
   xmlns:sodipodi="http://sodipodi.sourceforge.net/DTD/sodipodi-0.dtd"
   xmlns:inkscape="http://www.inkscape.org/namespaces/inkscape"
   width="256"
   height="256"
   id="svg2"
   version="1.1"
   inkscape:version="0.47 r22583"
   sodipodi:docname="okasha-logo.svg"
   inkscape:export-filename="/home/alsadi/okasha-logo.png"
   inkscape:export-xdpi="90"
   inkscape:export-ydpi="90">
  <defs
     id="defs4">
    <inkscape:perspective
       sodipodi:type="inkscape:persp3d"
       inkscape:vp_x="0 : 526.18109 : 1"
       inkscape:vp_y="0 : 1000 : 0"
       inkscape:vp_z="744.09448 : 526.18109 : 1"
       inkscape:persp3d-origin="372.04724 : 350.78739 : 1"
       id="perspective10" />
    <inkscape:perspective
       id="perspective10-6"
       inkscape:persp3d-origin="372.04724 : 350.78739 : 1"
       inkscape:vp_z="744.09448 : 526.18109 : 1"
       inkscape:vp_y="0 : 1000 : 0"
       inkscape:vp_x="0 : 526.18109 : 1"
       sodipodi:type="inkscape:persp3d" />
  </defs>
  <sodipodi:namedview
     id="base"
     pagecolor="#ffffff"
     bordercolor="#666666"
     borderopacity="1.0"
     inkscape:pageopacity="0.0"
     inkscape:pageshadow="2"
     inkscape:zoom="1.1010404"
     inkscape:cx="56.335715"
     inkscape:cy="182.46924"
     inkscape:document-units="px"
     inkscape:current-layer="layer1"
     showgrid="false"
     inkscape:window-width="1280"
     inkscape:window-height="970"
     inkscape:window-x="0"
     inkscape:window-y="28"
     inkscape:window-maximized="1" />
  <metadata
     id="metadata7">
    <rdf:RDF>
      <cc:Work
         rdf:about="">
        <dc:format>image/svg+xml</dc:format>
        <dc:type
           rdf:resource="http://purl.org/dc/dcmitype/StillImage" />
        <dc:title></dc:title>
      </cc:Work>
    </rdf:RDF>
  </metadata>
  <g
     inkscape:label="Layer 1"
     inkscape:groupmode="layer"
     id="layer1"
     transform="translate(131.78954,-776.27629)">
    <path
       style="fill:#005900;fill-opacity:1;stroke:none"
       d="M 151.75 141.3125 C 139.4268 160.7468 132.47659 180.63628 130.5625 197.71875 C 131.03468 197.58339 131.50069 197.43113 131.96875 197.25 C 134.35103 196.32809 136.43923 194.97282 138.15625 193.3125 A 1.2154798 1.2154798 0 0 1 138.84375 192.96875 A 1.2154798 1.2154798 0 0 1 139.21875 193 C 142.47278 177.30577 149.72674 156.45947 159.78125 141.3125 L 151.75 141.3125 z M 196.8125 142.125 C 196.50281 145.10078 195.90002 148.04822 195 150.9375 C 200.69304 158.16156 200.68434 168.65963 194.46875 175.90625 C 187.95717 183.49784 176.92312 184.88413 168.78125 179.53125 C 167.04018 180.24309 165.24385 180.82257 163.4375 181.3125 L 163.4375 188.5625 C 163.67451 188.5545 163.91766 188.53125 164.15625 188.53125 C 178.91256 188.53125 190.71875 198.95446 190.71875 211.96875 C 190.71875 224.9829 178.91256 235.40625 164.15625 235.40625 C 149.39994 235.40625 139.89473 224.7723 137.5625 211.96875 C 137.27591 210.39543 137.23061 208.28409 137.375 205.78125 C 136.78667 206.05284 136.17925 206.29257 135.5625 206.53125 C 133.79908 207.21367 132.02124 207.71463 130.21875 208.03125 A 1.2154798 1.2154798 0 0 1 130 208.0625 C 130.01622 209.38813 130.0694 210.69445 130.15625 211.96875 C 131.28239 228.49208 145.37759 241.9375 164.15625 241.9375 C 180.46157 241.9375 194.09904 231.8197 197.40625 218.3125 C 198.77557 219.21743 200.41979 219.75 202.1875 219.75 C 204.08325 219.75 205.82027 219.12221 207.25 218.09375 C 210.70653 229.12794 221.015 237.15625 233.1875 237.15625 C 238.23858 237.15625 242.97906 235.7769 247.03125 233.375 C 245.38551 231.475 243.94394 229.3789 242.78125 227.125 C 239.94289 228.7169 236.67461 229.625 233.1875 229.625 C 222.33327 229.625 213.53125 220.85421 213.53125 210 C 213.53125 199.14577 222.33327 190.3125 233.1875 190.3125 C 237.63959 190.3125 241.76857 191.78245 245.0625 194.28125 C 246.515 192.21873 248.1721 190.34865 250.0625 188.6875 C 245.42581 185.00567 239.56679 182.8125 233.1875 182.8125 C 220.34845 182.8125 209.58887 191.71526 206.75 203.6875 C 205.42121 202.86294 203.86395 202.375 202.1875 202.375 C 200.23695 202.375 198.44685 203.06834 197 204.15625 C 195.22277 198.34827 191.48957 193.22113 186.5 189.375 C 191.64566 188.01829 196.46164 185.15633 200.1875 180.8125 C 209.9561 169.42362 208.63885 152.26858 197.25 142.5 C 197.10434 142.37509 196.96004 142.24624 196.8125 142.125 z M 202.1875 206.375 C 203.80121 206.375 205.21755 207.22041 206.0625 208.46875 C 206.03571 208.96311 206.03125 209.49895 206.03125 210 C 206.03125 211.16771 206.07576 212.27732 206.21875 213.40625 C 205.40626 214.80418 203.91996 215.75 202.1875 215.75 C 200.43145 215.75 198.9219 214.80454 198.125 213.375 C 198.14925 212.91044 198.15625 212.43857 198.15625 211.96875 C 198.15625 210.98196 198.10591 209.99351 198 209.03125 C 198.76048 207.48045 200.34705 206.375 202.1875 206.375 z "
       transform="translate(-131.78954,776.27629)"
       id="path2821" />
    <path
       style="fill:#808000;fill-opacity:1;stroke:none"
       d="M 128.625 153.09375 C 128.3423 155.60417 127.857 158.06104 127.15625 160.46875 C 131.09979 160.842 134.83555 162.41682 137.875 164.9375 C 138.8034 162.68314 139.80284 160.39771 140.875 158.125 A 1.4324567 1.4324567 0 0 1 141.03125 157.875 C 137.368 155.28714 133.09965 153.64483 128.625 153.09375 z M 148.75 166.3125 C 147.60731 169.23766 146.56227 172.17377 145.59375 175.09375 A 1.4324567 1.4324567 0 0 1 144.5625 176.09375 C 146.48023 185.33308 141.49788 194.85668 132.40625 198.375 C 130.45843 199.12878 128.4784 199.56863 126.5 199.6875 C 127.43816 194.29751 126.96168 188.56665 124.84375 183.09375 C 123.64012 179.98347 121.99168 177.17374 120 174.71875 C 118.24815 177.04341 116.27222 179.23023 114.0625 181.1875 C 115.1552 182.70483 116.07414 184.39153 116.78125 186.21875 C 118.32374 190.20467 118.66491 194.36104 117.96875 198.28125 C 113.11581 196.31672 109.03952 192.42652 107 187.15625 C 106.90732 186.91676 106.83271 186.67827 106.75 186.4375 C 104.84752 187.52493 102.85592 188.4663 100.75 189.28125 C 100.46618 189.39109 100.15968 189.4902 99.875 189.59375 C 99.90841 189.68275 99.965594 189.75485 100 189.84375 C 102.86378 197.244 108.61535 202.69989 115.46875 205.375 C 112.99695 209.8006 109.00533 213.40173 103.90625 215.375 C 92.290749 219.87002 79.245018 214.11549 74.75 202.5 C 73.253925 198.63402 72.884401 194.59837 73.5 190.78125 C 70.673628 190.02685 67.930139 188.97957 65.3125 187.6875 C 64.213142 192.68376 64.34257 198.00774 65.875 203.1875 C 65.029599 203.2467 64.174733 203.42842 63.34375 203.75 C 62.315646 204.14786 61.424509 204.73751 60.65625 205.4375 C 53.496747 196.14077 40.841805 192.20668 29.34375 196.65625 C 15.35061 202.07138 8.39737 217.81938 13.8125 231.8125 C 16.33101 238.3205 21.07319 243.29155 26.84375 246.21875 C 28.3715 244.09475 30.16505 242.133 32.15625 240.375 C 27.13009 238.4643 22.90683 234.50565 20.8125 229.09375 C 16.89518 218.97104 21.908557 207.57357 32.03125 203.65625 C 42.15394 199.73892 53.551424 204.78356 57.46875 214.90625 C 59.656591 220.55981 59.065324 226.61425 56.34375 231.53125 C 59.012693 231.58925 61.632381 231.95075 64.1875 232.59375 C 65.781793 228.82585 66.514918 224.71284 66.28125 220.53125 C 67.390427 220.55825 68.524123 220.36353 69.625 219.9375 C 71.421727 219.2422 72.849775 218.00824 73.8125 216.5 C 82.285181 224.88352 95.204319 228.01437 107.03125 223.4375 C 114.96942 220.36555 120.90479 214.40808 124.15625 207.21875 C 127.79161 207.377 131.51481 206.80334 135.125 205.40625 C 149.11813 199.99112 156.07139 184.24316 150.65625 170.25 C 150.1207 168.8661 149.47561 167.55326 148.75 166.3125 z M 66.09375 207.1875 C 66.531006 207.15452 66.985081 207.19756 67.40625 207.28125 C 68.387875 209.43992 69.582204 211.43022 70.96875 213.25 C 70.553962 214.56397 69.571098 215.68332 68.1875 216.21875 C 67.387242 216.52844 66.538836 216.59496 65.75 216.46875 C 65.449367 215.03634 65.0141 213.59673 64.46875 212.1875 C 64.014445 211.01354 63.498761 209.91551 62.90625 208.84375 C 63.394138 208.26021 64.05326 207.76256 64.8125 207.46875 C 65.240734 207.30303 65.656494 207.22048 66.09375 207.1875 z "
       transform="translate(-131.78954,776.27629)"
       id="path2869" />
    <path
       id="path2895"
       d="m -104.75326,945.38752 c -4.47185,1.73054 -6.67771,6.76307 -4.94717,11.23491 1.73055,4.47188 6.74086,6.6863 11.212713,4.95576 4.471853,-1.73054 6.708521,-6.74943 4.977972,-11.22131 -1.730533,-4.47184 -6.771665,-6.6999 -11.243515,-4.96936 z m 1.44391,3.73119 c 2.40792,-0.93183 5.136585,0.27415 6.068417,2.68208 0.931833,2.40793 -0.28278,5.11439 -2.690696,6.04621 -2.407921,0.93183 -5.105781,-0.26055 -6.037621,-2.66848 -0.93183,-2.40793 0.25198,-5.12798 2.6599,-6.05981 z"
       style="fill:#808000;fill-opacity:1;stroke:none" />
    <path
       style="fill:#808000;fill-opacity:1;stroke:none"
       d="m -122.69848,941.59021 c -6.19215,2.39626 -9.24658,9.36479 -6.85032,15.55692 2.39628,6.19219 9.33403,9.25849 15.52618,6.86222 6.19215,-2.39627 9.28925,-9.3459 6.89297,-15.53809 -2.39626,-6.19213 -9.37669,-9.27732 -15.56883,-6.88105 z m 1.99938,5.16655 c 3.33423,-1.29029 7.11259,0.37963 8.40289,3.71388 1.29031,3.33425 -0.39155,7.08185 -3.72578,8.37215 -3.33424,1.2903 -7.06995,-0.36079 -8.36026,-3.69504 -1.2903,-3.33425 0.34891,-7.10069 3.68315,-8.39099 z"
       id="path2897" />
    <path
       style="fill:#808000;fill-opacity:1;stroke:none"
       d="m -30.092694,910.69793 c -3.816456,1.47691 -5.699018,5.77188 -4.222113,9.58832 1.476919,3.81648 5.752921,5.70636 9.569377,4.22945 3.816457,-1.47691 5.725316,-5.76024 4.248397,-9.57672 -1.476905,-3.81644 -5.779205,-5.71796 -9.595661,-4.24105 z m 1.232293,3.18434 c 2.055011,-0.79525 4.383765,0.23399 5.179025,2.289 0.795263,2.05503 -0.241335,4.36482 -2.296346,5.16008 -2.055017,0.79526 -4.357478,-0.22237 -5.152741,-2.27739 -0.795261,-2.05502 0.215045,-4.37643 2.270062,-5.17169 z"
       id="path2899" />
    <path
       id="path2901"
       d="m -48.498681,905.71479 c -6.192151,2.39627 -9.246582,9.3648 -6.850322,15.55693 2.396281,6.19218 9.334036,9.25848 15.526186,6.86222 6.192146,-2.39627 9.289247,-9.3459 6.892965,-15.53809 -2.396259,-6.19213 -9.376684,-9.27732 -15.568829,-6.88106 z m 1.999378,5.16656 c 3.334232,-1.2903 7.112592,0.37962 8.402897,3.71388 1.290302,3.33424 -0.391558,7.08185 -3.725789,8.37215 -3.334239,1.2903 -7.069949,-0.36079 -8.360251,-3.69504 -1.290305,-3.33425 0.348904,-7.10069 3.683143,-8.39099 z"
       style="fill:#808000;fill-opacity:1;stroke:none" />
    <path
       id="path2903"
       d="m -58.368035,922.21729 c -4.471853,1.73054 -6.677706,6.76308 -4.947173,11.23492 1.730549,4.47188 6.740863,6.6863 11.212716,4.95576 4.471853,-1.73054 6.708522,-6.74943 4.977972,-11.22131 -1.730533,-4.47184 -6.771662,-6.6999 -11.243515,-4.96937 z m 1.443912,3.73119 c 2.407917,-0.93182 5.136583,0.27416 6.068416,2.68209 0.931832,2.40793 -0.282781,5.11438 -2.690697,6.04621 -2.407924,0.93183 -5.105784,-0.26056 -6.037617,-2.66849 -0.931832,-2.40793 0.251975,-5.12798 2.659898,-6.05981 z"
       style="fill:#808000;fill-opacity:1;stroke:none" />
    <path
       style="fill:#008000;fill-opacity:1;stroke:none"
       d="m 10.36671,935.02629 c -1.13397,2.40374 -2.18302,4.8058 -3.15625,7.1875 1.97954,1.9201 3.59609,4.29171 4.65625,7.03125 0.21722,0.56133 0.39973,1.12001 0.5625,1.6875 1.08204,-3.26225 2.25314,-6.56317 3.5625,-9.84375 -1.57852,-2.32823 -3.47738,-4.37047 -5.625,-6.0625 z"
       id="path2977" />
    <path
       style="fill:#808000;fill-opacity:1;stroke:none"
       d="m 7.21046,970.46379 c -1.83523,1.77463 -4.06308,3.20817 -6.59375,4.1875 -0.66388,0.25691 -1.32998,0.47255 -2,0.65625 -0.26136,2.67704 -0.39649,5.29294 -0.40625,7.8125 1.72177,-0.30244 3.43222,-0.78242 5.125,-1.4375 0.80834,-0.31282 1.58342,-0.6518 2.34375,-1.03125 0.24616,-2.96046 0.78546,-6.4177 1.53125,-10.1875 z"
       id="path2951" />
    <g
       transform="matrix(1.4350478,0,0,1.4282351,-95.632596,-545.41788)"
       id="layer1-3"
       inkscape:label="Layer 1">
      <g
         transform="matrix(0.92074535,-0.13531285,0.13531285,0.92074535,-129.33252,86.235641)"
         id="g2880"
         style="fill:#008000">
        <path
           style="fill:#008000;fill-opacity:0.31372549;stroke:none"
           d="m 71.75,13.28125 c -8.759987,2.753681 -17.528278,4.667026 -26.78125,3.3125 -4.872887,8.874687 -12.354576,15.78731 -21.5,16.28125 3.236939,8.941196 -3.055595,19.189122 -10.5,24.84375 7.00833,8.682295 7.60374,16.506526 3.3125,26.78125 7.724387,2.900947 14.801341,12.714483 16.28125,21.53125 9.59851,-0.1147 16.724195,4.04157 24.84375,10.5 8.267001,-5.21861 16.542309,-6.83455 26.78125,-3.34375 4.708559,-9.03901 10.578213,-14.308356 21.53125,-16.28125 0.0496,-12.063435 3.05559,-17.874494 10.5,-24.84375 C 108.53522,63.302515 109.87719,54.205565 112.875,45.28125 104.00031,40.572691 99.716945,33.583988 96.59375,23.78125 85.516286,22.909979 79.376568,19.575357 71.75,13.28125 z m -0.625,3.15625 c 6.902431,5.494979 13.543001,8.890377 23.375,10 2.957991,8.511361 7.36697,15.302935 15,20.0625 -1.21019,3.986369 -2.08091,8.076193 -1.84375,12.375 0.23719,4.299394 1.92992,8.692552 4.9375,12.875 -6.05086,6.222739 -9.13002,12.860281 -9.5625,23 -9.438755,2.271283 -15.673485,7.40949 -20.1875,15.125 -9.255484,-2.53326 -17.537472,-1.057 -25.1875,3.28125 -7.128421,-5.47579 -14.180338,-9.25475 -22.875,-9.75 -2.062668,-8.335914 -7.702386,-16.3666 -15.0625,-20.25 3.114442,-8.975433 2.313099,-17.139094 -3.09375,-25 3.255872,-2.883788 6.276411,-6.330596 8.21875,-10.375 1.883855,-3.92263 2.4185,-8.314722 1.71875,-12.6875 8.460412,-1.641603 15.229583,-7.773404 19.875,-15.53125 8.645697,0.881297 16.801655,-0.732703 24.6875,-3.125 z"
           transform="translate(0,924.36218)"
           id="path2856" />
        <path
           id="path2866"
           d="m 70.1099,949.47507 c -6.752336,2.12258 -13.511072,3.59742 -20.643407,2.55333 -3.756098,6.84075 -9.523101,12.1691 -16.572537,12.54984 2.495083,6.89201 -2.3553,14.79128 -8.093564,19.14995 5.40213,6.69245 5.861082,12.72349 2.553327,20.64341 5.954078,2.2361 11.409105,9.8005 12.549842,16.5966 7.398682,-0.088 12.891271,3.1153 19.149951,8.0936 6.372334,-4.0226 12.751071,-5.2682 20.643407,-2.5774 3.629431,-6.9674 8.153852,-11.0291 16.596625,-12.5499 0.03826,-9.2987 2.355296,-13.7779 8.093566,-19.14992 -5.922587,-6.75233 -4.888176,-13.76441 -2.57742,-20.64341 -6.840747,-3.62943 -10.142431,-9.01643 -12.549839,-16.57253 -8.538683,-0.67159 -13.271273,-3.24197 -19.149951,-8.09357 z m -0.48176,2.43289 c 5.320502,4.23561 10.439157,6.85284 18.017816,7.70816 2.280065,6.56069 5.678575,11.79574 11.562234,15.46448 -0.932833,3.07276 -1.603998,6.22526 -1.421191,9.53885 0.18283,3.31404 1.487613,6.70035 3.805901,9.92425 -4.664096,4.79658 -7.037561,9.9129 -7.370923,17.7288 -7.27554,1.7507 -12.081368,5.7113 -15.560841,11.6585 -7.134272,-1.9526 -13.518158,-0.8147 -19.41492,2.5293 -5.494698,-4.2208 -10.930426,-7.1337 -17.632408,-7.5155 -1.589936,-6.4254 -5.937119,-12.6156 -11.61041,-15.609 2.40066,-6.91839 1.782972,-13.21107 -2.384711,-19.27038 2.509677,-2.22286 4.837955,-4.87972 6.335141,-7.99721 1.452105,-3.02362 1.864217,-6.40912 1.324839,-9.77972 6.521418,-1.26537 11.739201,-5.99186 15.319961,-11.97173 6.664239,0.67932 12.950979,-0.56478 19.029512,-2.4088 z"
           style="fill:#008000;fill-opacity:0.31372549;stroke:none" />
        <path
           style="fill:#008000;fill-opacity:0.31372549;stroke:none"
           d="m 68.538137,960.81373 c -4.828336,1.51777 -9.661249,2.57237 -14.761308,1.82579 -2.685841,4.89155 -6.809604,8.70165 -11.850385,8.9739 1.784138,4.92822 -1.684185,10.57668 -5.787397,13.6934 3.862856,4.78551 4.191035,9.09808 1.825786,14.76128 4.257533,1.599 8.158213,7.008 8.973911,11.8676 5.290513,-0.063 9.218053,2.2277 13.693395,5.7874 4.556611,-2.8764 9.117801,-3.767 14.761308,-1.843 2.595267,-4.9821 5.830507,-7.8864 11.867609,-8.9739 0.02736,-6.6492 1.684182,-9.85206 5.787399,-13.69338 -4.235015,-4.82833 -3.495347,-9.8424 -1.843014,-14.76131 -4.891556,-2.59527 -7.252463,-6.4473 -8.973908,-11.85038 -6.105685,-0.48023 -9.489778,-2.31821 -13.693396,-5.7874 z m -0.344488,1.73966 c 3.804487,3.02873 7.464641,4.90021 12.883849,5.51181 1.630387,4.6913 4.060531,8.43468 8.26771,11.05806 -0.667033,2.19721 -1.146957,4.45144 -1.016239,6.82086 0.130735,2.36975 1.063735,4.79117 2.721454,7.09645 -3.335116,3.42985 -5.03229,7.08833 -5.270665,12.67723 -5.202459,1.2518 -8.638922,4.0839 -11.12696,8.3365 -5.101444,-1.3962 -9.666316,-0.5826 -13.882864,1.8086 -3.929048,-3.0181 -7.815928,-5.101 -12.608258,-5.374 -1.136903,-4.5946 -4.245406,-9.021 -8.302159,-11.16143 1.71662,-4.94708 1.274935,-9.44673 -1.705215,-13.77951 1.794573,-1.58948 3.459436,-3.4893 4.530016,-5.7185 1.038344,-2.16207 1.33303,-4.58292 0.947341,-6.9931 4.663216,-0.90482 8.394253,-4.28455 10.954717,-8.56053 4.765341,0.48576 9.260748,-0.40385 13.607273,-1.72244 z"
           id="path2868" />
        <path
           id="path2876"
           d="m 73.402804,925.72014 c -10.783189,3.38967 -21.576601,5.74492 -32.966636,4.07756 -5.998326,10.92438 -15.207983,19.43354 -26.46563,20.04156 3.984541,11.00625 -3.761314,23.62103 -12.9250757,30.58165 8.6269709,10.68755 9.3598967,20.31889 4.0775536,32.96659 9.5084081,3.571 18.2198521,15.6511 20.0415601,26.5041 11.815378,-0.1411 20.586808,4.9751 30.581652,12.9251 10.176344,-6.4239 20.362914,-8.413 32.966636,-4.116 5.796046,-11.1267 13.021356,-17.613 26.504096,-20.0416 0.0611,-14.8496 3.76131,-22.0027 12.92508,-30.58162 -9.45812,-10.78318 -7.80621,-21.98116 -4.11602,-32.96663 -10.92439,-5.79605 -16.19704,-14.39886 -20.04156,-26.46563 -13.635914,-1.0725 -21.193659,-5.17729 -30.581656,-12.92508 z m -0.769349,3.88522 c 8.496613,6.7641 16.670886,10.94369 28.773675,12.30959 3.64117,10.47715 9.06845,18.8373 18.4644,24.69613 -1.4897,4.90706 -2.56152,9.94147 -2.26958,15.23313 0.29197,5.29238 2.37565,10.70018 6.07786,15.8486 -7.44836,7.65989 -11.23869,15.83049 -11.77105,28.31209 -11.61873,2.7958 -19.293428,9.1208 -24.849998,18.6182 -11.393126,-3.1183 -21.587919,-1.3011 -31.004794,4.0391 -8.774798,-6.7404 -17.455423,-11.3922 -28.1582,-12.0018 -2.539061,-10.2612 -9.481326,-20.1466 -18.5413286,-24.927 3.8337526,-11.0484 2.8473316,-21.09749 -3.8082812,-30.77395 4.0078468,-3.54982 7.7260078,-7.7927 10.1169488,-12.7712 2.31895,-4.8286 2.977076,-10.23509 2.115712,-15.6178 10.414425,-2.02075 18.747001,-9.56875 24.465321,-19.11834 10.642504,1.08484 20.682158,-0.90193 30.389315,-3.84675 z"
           style="fill:#008000;fill-opacity:0.31372549;stroke:none" />
        <path
           id="path2878"
           d="m 67.420064,968.87948 c -3.459699,1.08754 -6.922677,1.84321 -10.577077,1.30825 -1.924514,3.50499 -4.879357,6.23509 -8.491282,6.43016 1.278408,3.53127 -1.206787,7.57862 -4.146905,9.81188 2.767894,3.42901 3.003047,6.51915 1.30825,10.57706 3.050695,1.14575 5.845691,5.02147 6.430172,8.50357 3.790867,-0.045 6.605109,1.5963 9.811873,4.147 3.264997,-2.0611 6.533275,-2.6993 10.577077,-1.3206 1.859614,-3.5699 4.177795,-5.651 8.503623,-6.4302 0.0196,-4.76442 1.206785,-7.0594 4.146907,-9.81186 -3.034561,-3.45969 -2.504558,-7.05248 -1.320595,-10.57708 -3.504998,-1.85961 -5.196684,-4.61975 -6.430169,-8.49127 -4.374971,-0.34411 -6.799811,-1.6611 -9.811874,-4.14691 z m -0.24684,1.24654 c 2.726069,2.1702 5.348718,3.51119 9.231801,3.94943 1.168238,3.36151 2.909535,6.04379 5.92415,7.92355 -0.477956,1.57439 -0.821841,3.18964 -0.728177,4.88742 0.09368,1.69802 0.76221,3.43307 1.950033,5.0849 -2.389746,2.45762 -3.605841,5.07907 -3.776646,9.08378 -3.727773,0.8969 -6.190138,2.9262 -7.972918,5.9734 -3.655392,-1.0004 -6.926308,-0.4174 -9.947636,1.2959 -2.815323,-2.1625 -5.60043,-3.655 -9.034329,-3.8506 -0.814637,-3.2923 -3.042006,-6.46396 -5.948834,-7.99766 1.230028,-3.54479 0.913543,-6.76897 -1.221856,-9.87358 1.285885,-1.13893 2.478827,-2.50023 3.245941,-4.09754 0.744015,-1.54921 0.95517,-3.28385 0.678808,-5.01084 3.341384,-0.64834 6.014823,-3.07005 7.8495,-6.13397 3.41456,0.34807 6.635701,-0.28937 9.750163,-1.23419 z"
           style="fill:#008000;fill-opacity:0.31372549;stroke:none" />
      </g>
      <path
         id="rect2887"
         d="m 62.306595,925.40379 0,56.63836 -28.304061,-49.04827 -2.933219,1.6934 28.30406,49.04828 -49.048276,-28.30406 -1.6934049,2.93322 49.0482749,28.30406 -56.6383594,0 0,3.38681 56.6383594,0 -49.0482749,28.30401 1.6934049,2.9333 49.048276,-28.30409 -28.30406,49.04829 2.933219,1.6934 28.304061,-49.04829 0,56.63839 3.38681,0 0,-56.63839 28.304061,49.04829 2.93322,-1.6934 -28.304061,-49.04829 49.048275,28.30409 1.69341,-2.9333 -49.048279,-28.30401 56.638359,0 0,-3.38681 -56.638359,0 49.048279,-28.30406 -1.69341,-2.93322 -49.048275,28.30406 28.304061,-49.04828 -2.93322,-1.6934 -28.304061,49.04827 0,-56.63836 -3.38681,0 z"
         style="fill:#008000;fill-opacity:0.31372549;stroke:none" />
      <path
         sodipodi:type="inkscape:offset"
         inkscape:radius="-1.4049188"
         inkscape:original="M 63.3125 32.34375 C 59.041881 33.686209 54.760956 34.629101 50.25 33.96875 C 47.874398 38.295287 44.239775 41.665447 39.78125 41.90625 C 41.359304 46.265211 38.285504 51.243288 34.65625 54 C 38.072911 58.232743 38.373291 62.053425 36.28125 67.0625 C 40.046999 68.476753 43.497273 73.2642 44.21875 77.5625 C 48.898161 77.506582 52.354101 79.507671 56.3125 82.65625 C 60.342781 80.112104 64.38337 79.329437 69.375 81.03125 C 71.67049 76.624601 74.535238 74.086814 79.875 73.125 C 79.899194 67.243903 81.339496 64.397612 84.96875 61 C 81.222918 56.729382 81.882274 52.288231 83.34375 47.9375 C 79.017213 45.64201 76.960102 42.247725 75.4375 37.46875 C 70.037078 37.043993 67.030561 35.412217 63.3125 32.34375 z "
         style="fill:#008000;fill-opacity:0.31372549;stroke:none"
         id="path2863"
         d="m 63,33.875 c -3.844462,1.166279 -7.816349,1.960895 -12.03125,1.53125 -2.264707,3.782061 -5.562928,6.762195 -9.6875,7.5625 0.341138,2.131792 0.07466,4.275162 -0.84375,6.1875 -0.946918,1.971705 -2.412716,3.656612 -4,5.0625 2.635916,3.832304 3.018335,7.811848 1.5,12.1875 3.588161,1.893213 6.33817,5.811123 7.34375,9.875 4.238772,0.241442 7.681043,2.080475 11.15625,4.75 3.729498,-2.114959 7.769069,-2.82875 12.28125,-1.59375 2.200647,-3.76142 5.242222,-6.267717 9.84375,-7.375 0.210838,-4.943258 1.70637,-8.185076 4.65625,-11.21875 C 81.752511,58.804747 80.928133,56.658516 80.8125,54.5625 80.696882,52.46677 81.128767,50.474662 81.71875,48.53125 77.99754,46.210894 75.848313,42.89941 74.40625,38.75 69.61301,38.209043 66.365034,36.553881 63,33.875 z"
         transform="matrix(0.33254318,-0.05167801,0.05167801,0.33254318,41.156075,972.37713)" />
    </g>
  </g>
</svg>
